<?xml version="1.0" encoding="utf-8"?>
<!-- Generator: Adobe Illustrator 24.1.1, SVG Export Plug-In . SVG Version: 6.00 Build 0)  -->
<svg version="1.1" id="Layer_1" xmlns="http://www.w3.org/2000/svg" xmlns:xlink="http://www.w3.org/1999/xlink" x="0px" y="0px"
	 viewBox="0 0 612.8 314.2" style="enable-background:new 0 0 612.8 314.2;" xml:space="preserve">
<style type="text/css">
	.st0{fill:#005570;}
	.st1{fill:#6AA342;}
	.st2{fill:none;stroke:#005570;stroke-width:1.4165;stroke-miterlimit:10;}
</style>
<g>
	<g>
		<path class="st0" d="M127.9,230.1l-0.4-0.5v11h-2.1v-16.7h0l7.4,9.1l7.5-9.1h0v16.7h-2.1v-11l-0.4,0.5l-4.9,6L127.9,230.1z"/>
		<path class="st0" d="M157.3,223.9c4.7,0,8.4,3.7,8.4,8.5s-3.7,8.5-8.4,8.5c-4.8,0-8.4-3.7-8.4-8.5
			C148.9,227.6,152.5,223.9,157.3,223.9z M157.3,238.8c3.6,0,6.2-2.7,6.2-6.5s-2.6-6.5-6.2-6.5s-6.2,2.7-6.2,6.5
			S153.7,238.8,157.3,238.8z"/>
		<path class="st0" d="M187.2,240.9L177,229.8l-0.5-0.6v11.4h-2.2v-16.7h0l10.2,11.1l0.5,0.6v-11.4h2.2L187.2,240.9L187.2,240.9z"/>
		<path class="st0" d="M197.1,240.6v-16.4h2.2v16.4H197.1z"/>
		<path class="st0" d="M214.3,226v14.6h-2.2V226h-5v-1.8h12.2v1.8H214.3z"/>
		<path class="st0" d="M234.1,223.9c4.7,0,8.4,3.7,8.4,8.5s-3.7,8.5-8.4,8.5c-4.8,0-8.4-3.7-8.4-8.5
			C225.7,227.6,229.4,223.9,234.1,223.9z M234.1,238.8c3.6,0,6.2-2.7,6.2-6.5s-2.6-6.5-6.2-6.5s-6.2,2.7-6.2,6.5
			S230.6,238.8,234.1,238.8z"/>
		<path class="st0" d="M256.5,224.2c3.6,0,5.8,1.9,5.8,5c0,2.5-1.6,4.1-3.4,4.6l3.7,6.8h-2.4l-3.4-6.4h-3.4v6.4h-2.2v-16.4H256.5z
			 M253.3,226v6.3h3.2c2.2,0,3.5-1.2,3.5-3.2s-1.4-3.2-3.7-3.2H253.3z"/>
		<path class="st0" d="M271.2,240.6v-16.4h2.2v16.4H271.2z"/>
		<path class="st0" d="M296.1,240.9l-10.2-11.1l-0.5-0.6v11.4h-2.2v-16.7h0l10.2,11.1l0.5,0.6v-11.4h2.2L296.1,240.9L296.1,240.9z"
			/>
		<path class="st0" d="M313.3,240.9c-5,0-8.6-3.6-8.6-8.5s3.7-8.5,8.8-8.5c2.5,0,4.3,0.9,4.9,1.2v2.1c-1.1-0.5-2.8-1.2-4.9-1.2
			c-3.9,0-6.5,2.7-6.5,6.5c0,3.7,2.7,6.5,6.4,6.5c1.2,0,2.5-0.3,3.2-0.6v-5h2.1v6.3C317.4,240.4,315.3,240.9,313.3,240.9z"/>
	</g>
	<g>
		<path class="st0" d="M348,232.2c0.1,2-0.1,3.8-1.3,5.7l2.7,2.8h-2.5l-1.4-1.5c-1.2,1.1-2.9,1.8-4.7,1.8c-3.5,0-5.7-1.9-5.7-4.4
			c0-2.3,1.9-3.7,3.5-4.5c-1.2-1.3-2-2.4-2-4.1c0-2.1,1.7-4,4.2-4c2.3,0,4.2,1.7,4.2,3.7c0,2.6-2.2,4-3.6,4.7l3.9,4.1
			c0.7-1.3,0.9-2.7,0.8-4.2H348z M339.7,233.1c-1.2,0.6-2.6,1.6-2.6,3.2c0,1.7,1.5,2.8,3.7,2.8c1.3,0,2.5-0.5,3.4-1.3L339.7,233.1z
			 M340.2,231.1c1.1-0.6,2.9-1.6,2.9-3.3c0-1.2-1-2.2-2.3-2.2c-1.3,0-2.3,1-2.3,2.2C338.4,229.1,339.1,229.9,340.2,231.1z"/>
		<path class="st0" d="M371.9,226v14.6h-2.2V226h-5v-1.8H377v1.8H371.9z"/>
		<path class="st0" d="M384.8,240.6v-16.4h10.1v1.8H387v5.3h6.7v1.8H387v5.5h8.2v1.8H384.8z"/>
		<path class="st0" d="M402.7,239.9v-2.2c1.2,0.6,2.9,1.2,4.6,1.2c2.1,0,3.6-0.8,3.6-2.4c0-1.5-0.9-2.4-3.7-3.3
			c-3.2-1.1-4.6-2.4-4.6-5c0-2.8,2.3-4.4,5.5-4.4c1.6,0,3.2,0.4,4.1,0.8v2.1c-0.9-0.5-2.5-1-4-1c-2,0-3.4,0.9-3.4,2.4
			c0,1.3,0.8,2.3,3.6,3.3c3.1,1.1,4.7,2.4,4.7,4.9c0,2.8-2.2,4.5-5.6,4.5C405.5,240.9,403.8,240.4,402.7,239.9z"/>
		<path class="st0" d="M426.4,226v14.6h-2.2V226h-5v-1.8h12.2v1.8H426.4z"/>
		<path class="st0" d="M439.3,240.6v-16.4h2.2v16.4H439.3z"/>
		<path class="st0" d="M464.2,240.9L454,229.8l-0.5-0.6v11.4h-2.2v-16.7h0l10.2,11.1l0.5,0.6v-11.4h2.2L464.2,240.9L464.2,240.9z"/>
		<path class="st0" d="M481.4,240.9c-5,0-8.6-3.6-8.6-8.5s3.7-8.5,8.8-8.5c2.5,0,4.3,0.9,4.9,1.2v2.1c-1.1-0.5-2.8-1.2-4.9-1.2
			c-3.9,0-6.5,2.7-6.5,6.5c0,3.7,2.7,6.5,6.4,6.5c1.2,0,2.5-0.3,3.2-0.6v-5h2.1v6.3C485.5,240.4,483.4,240.9,481.4,240.9z"/>
	</g>
</g>
<g>
	<path class="st0" d="M266.3,117c-32.1-25.5-72.1-46.4-115-41.4c-34.3,4-68.9,27.4-97.6,63.9c2.2-1.8,58-43.9,99.8-49.4
		c32-4.3,61.8,9.7,87.1,26.9c-9.2,6.2-18.3,11.6-29.7,17.3c-29.7,14.7-49.5,14.5-71,6.1c-5.8,2.5-11.7,5.4-17.6,8.6
		c32.7,15.9,62,17.8,106.6-6.9C244.2,133.9,255.8,125.7,266.3,117L266.3,117z"/>
	<g>
		<path class="st1" d="M65.7,149.6c10.6-8.6,22.2-16.8,37.4-25.1c44.7-24.7,74-22.8,106.6-6.9c-5.9,3.2-11.8,6.1-17.6,8.6
			c-21.5-8.4-41.3-8.6-71,6.1c-11.4,5.6-20.5,11.1-29.7,17.3c25.4,17.2,55.1,31.2,87.1,26.9c41.7-5.6,97.6-47.7,99.8-49.4
			c-28.7,36.5-63.3,59.9-97.6,63.9C137.9,196.1,97.8,175.2,65.7,149.6z"/>
	</g>
</g>
<line class="st2" x1="298.2" y1="193.6" x2="298.2" y2="73.2"/>
<g>
	<path class="st1" d="M329.6,192.7v-3.9c1.6,0.8,3.8,1.6,6.1,1.7c0.8,0,1.6-0.1,2.3-0.3c1.6-0.4,2.6-1.2,2.6-2.5
		c0-1.8-1.3-2.8-4.8-4c-4.2-1.5-6.4-3.3-6.4-7c0-4,3.3-6.4,8-6.4c2.3,0,4.5,0.6,5.9,1.1v3.8c-1.3-0.7-3.5-1.4-5.6-1.4
		c-2.6,0-4.4,1.1-4.4,2.8c0,1.6,1.2,2.7,4.7,4c4.2,1.6,6.5,3.3,6.5,7c0,4-3.1,6.4-8.2,6.4C333.7,194,331.2,193.4,329.6,192.7z"/>
	<path class="st1" d="M372.6,175.6c-1.4-0.7-3.7-1.7-6.6-1.7c-4.9,0-8.3,3.6-8.3,8.2c0,4.6,3.3,8.2,8.2,8.2c3.1,0,5.4-0.9,6.8-1.6
		v3.7c-1,0.5-3.6,1.6-7,1.6c-6.9,0-12.1-5.1-12.1-11.9c0-6.8,5.1-11.9,12.1-11.9c3.3,0,5.8,1.1,6.7,1.6V175.6z"/>
	<path class="st1" d="M383.1,193.6v-23h4v23H383.1z"/>
	<path class="st1" d="M399.3,193.6v-23h14.4v3.4h-10.4v6.3h8.8v3.3h-8.8v6.6h10.9v3.4H399.3z"/>
	<path class="st1" d="M443.3,193.9l-13.4-13.7c-0.4-0.3-0.7-0.7-1.1-1v14.4h-4v-23.3h0.1l13.4,13.7l1.1,1.1v-14.4h4L443.3,193.9
		L443.3,193.9z"/>
	<path class="st1" d="M463.8,174v19.6h-4V174h-6.7v-3.4h17.4v3.4H463.8z"/>
	<path class="st1" d="M480.2,193.6v-23h4v23H480.2z"/>
	<path class="st1" d="M500.4,174v6.5h8.2v3.3h-8.2v9.7h-4v-23h13.7v3.4H500.4z"/>
	<path class="st1" d="M520.5,193.6v-23h4v23H520.5z"/>
	<path class="st1" d="M554,175.6c-1.4-0.7-3.7-1.7-6.6-1.7c-4.9,0-8.3,3.6-8.3,8.2c0,4.6,3.3,8.2,8.2,8.2c3.1,0,5.4-0.9,6.8-1.6v3.7
		c-1,0.5-3.6,1.6-7,1.6c-6.9,0-12.1-5.1-12.1-11.9c0-6.8,5.1-11.9,12.1-11.9c3.3,0,5.8,1.1,6.7,1.6V175.6z"/>
</g>
<g>
	<path class="st0" d="M329.4,73.2h58.7V91h-38.3v12.4h34.7v17h-34.7v26.2h-20.3V73.2z"/>
	<path class="st0" d="M394.1,73.2h20.4v73.3h-20.4V73.2z"/>
	<path class="st0" d="M442.2,91h-22V73.2h64.3V91h-22v55.5h-20.3V91z"/>
	<path class="st0" d="M489.3,131.7l36.8-41.4h-35.5V73.2h63.6v14.8l-36.8,41.4h36.8v17.2h-64.8V131.7z"/>
</g>
</svg>
